<?xml version="1.0" encoding="UTF-8" standalone="no"?>
<!-- Created with Inkscape (http://www.inkscape.org/) -->

<svg
   width="210mm"
   height="297mm"
   viewBox="0 0 210 297"
   version="1.1"
   id="svg1"
   xml:space="preserve"
   xmlns:inkscape="http://www.inkscape.org/namespaces/inkscape"
   xmlns:sodipodi="http://sodipodi.sourceforge.net/DTD/sodipodi-0.dtd"
   xmlns="http://www.w3.org/2000/svg"
   xmlns:svg="http://www.w3.org/2000/svg"><sodipodi:namedview
     id="namedview1"
     pagecolor="#ffffff"
     bordercolor="#000000"
     borderopacity="0.25"
     inkscape:showpageshadow="2"
     inkscape:pageopacity="0.0"
     inkscape:pagecheckerboard="0"
     inkscape:deskcolor="#d1d1d1"
     inkscape:document-units="mm"
     showgrid="false"
     showguides="false"
     inkscape:lockguides="false" /><defs
     id="defs1" /><g
     inkscape:label="Camada 1"
     inkscape:groupmode="layer"
     id="layer1"><g
       id="g1"
       transform="translate(6.7885715,46.388567)"><path
         style="fill:#d0d0d0;fill-opacity:1;stroke-width:0.300557"
         d="m 122.24638,144.46487 c 0.38604,-0.41563 0.76913,-0.75569 0.85131,-0.75569 0.0822,0 -0.16642,0.34006 -0.55246,0.75569 -0.38604,0.41562 -0.76913,0.75568 -0.85132,0.75568 -0.0822,0 0.16643,-0.34006 0.55247,-0.75568 z m 34.69027,-70.757229 c 0.0144,-0.352134 0.0852,-0.423758 0.18056,-0.182625 0.0863,0.218202 0.0757,0.478916 -0.0236,0.579359 -0.0993,0.100442 -0.16994,-0.07809 -0.15696,-0.396734 z m -0.29885,-8.161389 c 0.0144,-0.352134 0.0852,-0.423758 0.18056,-0.182625 0.0863,0.218203 0.0757,0.478917 -0.0236,0.579359 -0.0993,0.100443 -0.16994,-0.07809 -0.15697,-0.396734 z m -0.27526,-7.68279 c 0,-0.415626 0.0678,-0.585655 0.15074,-0.377842 0.0829,0.207813 0.0829,0.547871 0,0.755684 -0.0829,0.207813 -0.15074,0.03778 -0.15074,-0.377842 z M 44.933598,50.306621 c 0,-0.914378 0.05602,-1.288442 0.124498,-0.831253 0.06848,0.457189 0.06848,1.205316 0,1.662505 -0.06847,0.457189 -0.124498,0.08313 -0.124498,-0.831252 z M 155.74125,45.293917 c 0.0143,-0.352134 0.0852,-0.423758 0.18055,-0.182625 0.0863,0.218202 0.0757,0.478916 -0.0236,0.579359 -0.0993,0.100442 -0.16993,-0.07809 -0.15696,-0.396734 z m -0.29885,-6.952294 c 0.0143,-0.352134 0.0851,-0.423758 0.18055,-0.182625 0.0863,0.218202 0.0757,0.478916 -0.0236,0.579359 -0.0993,0.100442 -0.16993,-0.07809 -0.15696,-0.396734 z M 81.247796,28.336431 c 0.215731,-0.08732 0.473493,-0.07658 0.572798,0.02385 0.09931,0.100443 -0.07721,0.171885 -0.392241,0.158761 -0.348147,-0.01451 -0.418959,-0.08613 -0.180557,-0.182622 z m 34.367834,-1.511368 c 0.21573,-0.08732 0.47349,-0.07658 0.5728,0.02385 0.0993,0.100443 -0.0772,0.171885 -0.39225,0.15876 -0.34814,-0.01451 -0.41895,-0.08613 -0.18055,-0.182621 z M 93.85556,23.290139 c 0,-0.06277 0.235345,-0.300808 0.522989,-0.528979 0.473995,-0.375989 0.484565,-0.365298 0.112834,0.114126 -0.39041,0.503512 -0.635823,0.663636 -0.635823,0.414853 z"
         id="path6" /><path
         style="fill:#b9b9b9;fill-opacity:1;stroke-width:0.300557"
         d="m 119.85557,146.93961 c 0,-0.052 0.43707,-0.4941 0.97127,-0.98239 l 0.97126,-0.88781 -0.87775,0.98239 c -0.81819,0.91573 -1.06478,1.12133 -1.06478,0.88781 z m 37.08108,-72.325148 c 0.0144,-0.352134 0.0852,-0.423758 0.18056,-0.182625 0.0863,0.218202 0.0757,0.478916 -0.0236,0.579359 -0.0993,0.100442 -0.16994,-0.07809 -0.15696,-0.396734 z M 44.867639,70.684904 c 0.01434,-0.352134 0.08515,-0.423757 0.180553,-0.182625 0.08633,0.218203 0.07571,0.478917 -0.02358,0.579359 -0.09931,0.100443 -0.169939,-0.07809 -0.156962,-0.396734 z M 156.66139,66.629398 c 0,-0.415626 0.0678,-0.585655 0.15074,-0.377842 0.0829,0.207813 0.0829,0.547871 0,0.755684 -0.0829,0.207813 -0.15074,0.03778 -0.15074,-0.377842 z m -0.32244,-7.733167 c 0.0143,-0.352133 0.0852,-0.423757 0.18056,-0.182624 0.0863,0.218202 0.0757,0.478916 -0.0236,0.579359 -0.0993,0.100442 -0.16994,-0.07809 -0.15697,-0.396735 z M 44.939697,54.840725 c 0,-1.080628 0.05424,-1.522703 0.120536,-0.982389 0.06629,0.540314 0.06629,1.424465 0,1.964779 -0.06629,0.540314 -0.120536,0.09824 -0.120536,-0.98239 z M 155.74125,46.200738 c 0.0143,-0.352134 0.0852,-0.423758 0.18055,-0.182625 0.0863,0.218202 0.0757,0.478916 -0.0236,0.579359 -0.0993,0.100442 -0.16993,-0.07809 -0.15696,-0.396734 z m -0.29885,-6.952294 c 0.0143,-0.352134 0.0851,-0.423758 0.18055,-0.182625 0.0863,0.218202 0.0757,0.478916 -0.0236,0.579359 -0.0993,0.100442 -0.16993,-0.07809 -0.15696,-0.396734 z M 82.144348,28.336431 c 0.215731,-0.08732 0.473493,-0.07658 0.572798,0.02385 0.09931,0.100443 -0.07721,0.171885 -0.392241,0.158761 -0.348146,-0.01451 -0.418959,-0.08613 -0.180557,-0.182622 z"
         id="path5" /><path
         style="fill:#a3a3a3;fill-opacity:1;stroke-width:0.300557"
         d="m 45.764191,82.473577 c 0.01435,-0.352134 0.08515,-0.423758 0.180553,-0.182625 0.08633,0.218202 0.07571,0.478916 -0.02358,0.579359 -0.09931,0.100442 -0.169938,-0.07809 -0.156962,-0.396734 z M 156.93665,75.521283 c 0.0144,-0.352134 0.0852,-0.423758 0.18056,-0.182625 0.0863,0.218202 0.0757,0.478916 -0.0236,0.579359 -0.0993,0.100442 -0.16994,-0.07809 -0.15696,-0.396734 z m -112.069011,-5.7432 c 0.01434,-0.352134 0.08515,-0.423757 0.180553,-0.182625 0.08633,0.218203 0.07571,0.478917 -0.02358,0.579359 -0.09931,0.100443 -0.169939,-0.07809 -0.156962,-0.396734 z M 156.6378,67.662168 c 0.0144,-0.352134 0.0852,-0.423758 0.18056,-0.182625 0.0863,0.218202 0.0757,0.478916 -0.0236,0.579359 -0.0993,0.100442 -0.16994,-0.07809 -0.15697,-0.396734 z m -0.29885,-7.859116 c 0.0143,-0.352133 0.0852,-0.423757 0.18056,-0.182624 0.0863,0.218202 0.0757,0.478916 -0.0236,0.579359 -0.0993,0.100442 -0.16994,-0.07809 -0.15697,-0.396735 z M 44.929519,58.014599 c 0.0024,-0.831253 0.06028,-1.135434 0.128975,-0.67596 0.06869,0.459475 0.06686,1.13959 -0.0041,1.511369 -0.07093,0.371778 -0.127137,-0.0041 -0.124895,-0.835409 z M 156.0401,52.850758 c 0.0144,-0.352133 0.0852,-0.423757 0.18055,-0.182624 0.0863,0.218202 0.0757,0.478916 -0.0236,0.579358 -0.0993,0.100443 -0.16994,-0.07809 -0.15697,-0.396734 z m -0.5977,-12.695493 c 0.0143,-0.352134 0.0851,-0.423758 0.18055,-0.182625 0.0863,0.218202 0.0757,0.478916 -0.0236,0.579359 -0.0993,0.100442 -0.16993,-0.07809 -0.15696,-0.396734 z M 77.344059,28.645001 c 0.20546,-0.08385 0.541667,-0.08385 0.747126,0 0.20546,0.08385 0.03736,0.152464 -0.373563,0.152464 -0.41092,0 -0.579023,-0.06861 -0.373563,-0.152464 z m 5.696841,-0.30857 c 0.215732,-0.08732 0.473493,-0.07658 0.572798,0.02385 0.09931,0.100443 -0.07721,0.171885 -0.392241,0.158761 -0.348146,-0.01451 -0.418959,-0.08613 -0.180557,-0.182622 z"
         id="path4" /><path
         style="fill:#8c8c8c;fill-opacity:1;stroke-width:0.300557"
         d="m 73.794441,141.36656 c -0.371731,-0.47942 -0.361161,-0.49012 0.112835,-0.11413 0.287643,0.22818 0.522988,0.46622 0.522988,0.52898 0,0.24879 -0.245413,0.0887 -0.635823,-0.41485 z m -3.885059,-4.23183 c -0.371731,-0.47943 -0.361161,-0.49012 0.112834,-0.11413 0.287644,0.22817 0.522989,0.46621 0.522989,0.52898 0,0.24878 -0.245413,0.0887 -0.635823,-0.41485 z M 156.97132,76.755566 c 0.006,-0.498752 0.0731,-0.666193 0.14884,-0.37209 0.0758,0.294103 0.0708,0.702173 -0.0111,0.906821 -0.0819,0.204648 -0.14386,-0.03598 -0.13776,-0.534731 z M 44.867639,68.871262 c 0.01434,-0.352134 0.08515,-0.423757 0.180553,-0.182625 0.08633,0.218203 0.07571,0.478917 -0.02358,0.579359 -0.09931,0.100443 -0.169939,-0.07809 -0.156962,-0.396734 z M 156.66139,68.745314 c 0,-0.415626 0.0678,-0.585655 0.15074,-0.377842 0.0829,0.207813 0.0829,0.547871 0,0.755684 -0.0829,0.207813 -0.15074,0.03778 -0.15074,-0.377842 z M 44.929519,60.735062 c 0.0024,-0.831253 0.06028,-1.135434 0.128975,-0.67596 0.06869,0.459474 0.06686,1.13959 -0.0041,1.511369 -0.07093,0.371778 -0.127137,-0.0041 -0.124895,-0.835409 z m 111.409431,-0.02518 c 0.0143,-0.352133 0.0852,-0.423757 0.18056,-0.182624 0.0863,0.218202 0.0757,0.478916 -0.0236,0.579359 -0.0993,0.100442 -0.16994,-0.07809 -0.15697,-0.396735 z m -0.5977,-12.997767 c 0.0143,-0.352134 0.0852,-0.423757 0.18055,-0.182625 0.0863,0.218203 0.0757,0.478917 -0.0236,0.579359 -0.0993,0.100443 -0.16993,-0.07809 -0.15696,-0.396734 z m -0.29885,-6.65002 c 0.0143,-0.352134 0.0851,-0.423758 0.18055,-0.182625 0.0863,0.218202 0.0757,0.478916 -0.0236,0.579359 -0.0993,0.100442 -0.16993,-0.07809 -0.15696,-0.396734 z"
         id="path3" /><path
         style="fill:#767676;fill-opacity:1;stroke-width:0.300557"
         d="m 74.690994,142.27338 c -0.371732,-0.47942 -0.361162,-0.49011 0.112834,-0.11413 0.49781,0.39489 0.65612,0.64311 0.410154,0.64311 -0.06206,0 -0.297401,-0.23804 -0.522988,-0.52898 z m 58.911706,-7.44426 c 0,-0.0628 0.23535,-0.30081 0.52299,-0.52898 0.474,-0.37599 0.48457,-0.3653 0.11284,0.11413 -0.39041,0.50351 -0.63583,0.66363 -0.63583,0.41485 z m 23.40601,-55.504228 c 0,-1.080629 0.0542,-1.522704 0.12054,-0.98239 0.0663,0.540315 0.0663,1.424465 0,1.964779 -0.0663,0.540314 -0.12054,0.09824 -0.12054,-0.982389 z m -0.37091,-9.546809 c 0.0144,-0.352134 0.0852,-0.423757 0.18056,-0.182625 0.0863,0.218203 0.0757,0.478917 -0.0236,0.579359 -0.0993,0.100443 -0.16994,-0.07809 -0.15697,-0.396734 z M 44.867639,67.964441 c 0.01434,-0.352134 0.08515,-0.423757 0.180553,-0.182625 0.08633,0.218203 0.07571,0.478917 -0.02358,0.579359 -0.09931,0.100443 -0.169939,-0.07809 -0.156962,-0.396734 z m 0.06188,-4.508916 c 0.0024,-0.831253 0.06028,-1.135434 0.128975,-0.67596 0.06869,0.459474 0.06686,1.13959 -0.0041,1.511369 -0.07093,0.371778 -0.127137,-0.0041 -0.124895,-0.835409 z M 156.36254,61.79302 c 0,-0.415627 0.0678,-0.585656 0.15074,-0.377842 0.0829,0.207813 0.0829,0.547871 0,0.755684 -0.0829,0.207813 -0.15074,0.03778 -0.15074,-0.377842 z m -0.32244,-7.430893 c 0.0144,-0.352134 0.0852,-0.423758 0.18055,-0.182625 0.0863,0.218202 0.0757,0.478916 -0.0236,0.579359 -0.0993,0.100442 -0.16994,-0.07809 -0.15697,-0.396734 z m -0.29885,-5.7432 c 0.0143,-0.352134 0.0852,-0.423757 0.18055,-0.182625 0.0863,0.218203 0.0757,0.478917 -0.0236,0.579359 -0.0993,0.100443 -0.16993,-0.07809 -0.15696,-0.396734 z m -0.29885,-6.65002 c 0.0143,-0.352134 0.0851,-0.423758 0.18055,-0.182625 0.0863,0.218202 0.0757,0.478916 -0.0236,0.579359 -0.0993,0.100442 -0.16993,-0.07809 -0.15696,-0.396734 z m -0.56303,-8.438474 c 0.006,-0.498752 0.0731,-0.666193 0.14883,-0.37209 0.0758,0.294103 0.0708,0.702172 -0.0111,0.906821 -0.0819,0.204648 -0.14386,-0.03598 -0.13777,-0.534731 z m -4.24218,-9.938021 c 0,-0.06277 0.23535,-0.300807 0.52299,-0.528979 0.474,-0.375989 0.48457,-0.365297 0.11284,0.114127 -0.39041,0.503512 -0.63583,0.663636 -0.63583,0.414852 z M 46.99426,21.137213 c 0.0061,-0.498752 0.07307,-0.666193 0.14884,-0.37209 0.07577,0.294103 0.07079,0.702172 -0.01109,0.906821 -0.08186,0.204648 -0.143857,-0.03598 -0.137767,-0.534731 z m 57.28295,-1.889211 c -0.37173,-0.479424 -0.36116,-0.490115 0.11284,-0.114126 0.28764,0.228171 0.52299,0.466212 0.52299,0.528979 0,0.248783 -0.24542,0.08866 -0.63583,-0.414853 z"
         id="path2" /><path
         style="fill:#606060;fill-opacity:1;stroke-width:0.300557"
         d="m 98.771654,157.64028 c -0.156149,-0.15167 -1.104597,-0.61007 -2.107662,-1.01868 -1.003063,-0.40859 -2.818581,-1.41827 -4.034485,-2.24372 -1.215901,-0.82544 -3.421075,-2.16482 -4.900386,-2.9764 -1.479311,-0.81157 -4.895737,-3.11238 -7.592057,-5.11292 -5.588335,-4.14627 -9.844468,-8.44296 -12.956786,-13.08025 -1.025728,-1.52832 -4.096108,-5.74186 -6.823067,-9.36342 l -4.958109,-6.58465 -1.580643,-4.38297 C 47.745338,96.037089 46.41741,90.720288 45.891367,81.138534 45.786404,79.226653 45.563811,76.370167 45.396715,74.790787 44.923016,70.313401 45.068263,49.058064 45.59898,45.191615 c 0.241394,-1.758637 0.571187,-6.258041 0.732875,-9.998677 0.401828,-9.296315 0.83307,-14.861593 1.178679,-15.21116 0.186504,-0.18864 1.444955,0.62758 3.541599,2.297056 2.418398,1.925673 3.667768,2.70797 4.87268,3.051038 3.235367,0.921194 7.73913,1.721675 14.620392,2.598571 7.613138,0.97016 12.004453,1.005012 15.186944,0.120529 2.550569,-0.708859 7.80122,-4.037167 9.659749,-6.123167 1.459545,-1.638184 3.03791,-4.357967 4.294894,-7.400811 l 0.481658,-1.165963 0.70645,0.671278 c 0.38854,0.369203 1.3105,1.711222 2.04879,2.982268 1.7278,2.974584 5.15042,6.446554 8.1563,8.273901 2.15734,1.311499 2.63245,1.469941 5.78707,1.929911 5.10536,0.744404 18.33673,0.759052 23.16093,0.02563 7.58948,-1.153806 9.77131,-2.043167 11.7758,-4.800075 l 0.86669,-1.19202 0.59184,0.642537 c 0.92574,1.005048 1.9882,6.979635 1.76333,9.915819 -0.098,1.279678 -0.0554,3.210838 0.0947,4.291467 0.1501,1.080628 0.41388,5.093311 0.58617,8.917073 1.25845,27.929681 1.5223,37.539912 1.14,41.52299 -0.27283,2.842582 -0.44911,3.453444 -1.89436,6.56452 -0.87645,1.886656 -2.33542,5.665243 -3.24216,8.39687 -2.06198,6.2119 -3.01147,8.6217 -4.30364,10.92265 -0.56018,0.9975 -1.55094,3.03113 -2.20169,4.51918 -1.16835,2.67162 -3.34636,6.7988 -5.41115,10.25373 -1.50838,2.52392 -4.91464,6.49725 -7.19563,8.39357 -5.56222,4.62418 -8.62268,7.26765 -10.6487,9.19782 -1.23369,1.17532 -3.18444,2.80759 -4.33502,3.62728 -3.46631,2.46947 -12.73133,7.4685 -15.61143,8.42331 -0.861,0.28543 -1.64222,0.64459 -1.73603,0.79813 -0.21911,0.35858 -1.127283,0.36064 -1.495076,0.003 z"
         id="path1" /></g></g></svg>
